<?xml version="1.0" encoding="utf-8"?>
<!-- Generator: Adobe Illustrator 13.0.2, SVG Export Plug-In . SVG Version: 6.00 Build 14948)  -->
<!DOCTYPE svg PUBLIC "-//W3C//DTD SVG 1.1//EN" "http://www.w3.org/Graphics/SVG/1.1/DTD/svg11.dtd" [
	<!ENTITY st0 "fill:none;stroke:#010101;stroke-linecap:round;stroke-linejoin:round;stroke-miterlimit:10;">
	<!ENTITY st1 "fill:#F7BC60;">
	<!ENTITY st2 "fill:#FFFFFF;">
	<!ENTITY st3 "fill:none;">
	<!ENTITY st4 "fill:#CCCCCC;stroke:#000000;stroke-width:0.5;stroke-linecap:round;stroke-linejoin:round;stroke-miterlimit:10;">
	
		<!ENTITY st5 "fill-rule:evenodd;clip-rule:evenodd;fill:#CCCCCC;stroke:#000000;stroke-width:0.5;stroke-linecap:round;stroke-linejoin:round;stroke-miterlimit:10;">
]>
<svg version="1.1" id="Layer_1" xmlns="http://www.w3.org/2000/svg" xmlns:xlink="http://www.w3.org/1999/xlink" x="0px" y="0px"
	 width="367.894px" height="124.61px" viewBox="0 0 367.894 124.61" style="enable-background:new 0 0 367.894 124.61;"
	 xml:space="preserve">

<polygon style="&st0;" points="81.796,62.305 71.04,43.701 49.528,43.701 38.771,62.305 49.528,80.909 71.04,80.909 81.796,62.305 
	"/>
<polygon style="&st0;" points="200.112,62.305 189.356,43.701 167.844,43.701 157.088,62.305 167.844,80.909 189.356,80.909 
	200.112,62.305 "/>
<polygon style="&st0;" points="200.112,62.305 178.6,25.097 135.576,25.097 114.064,62.305 135.576,99.513 178.6,99.513 
	200.112,62.305 "/>
<polygon style="&st0;" points="361.39,62.305 350.634,43.701 329.123,43.701 318.367,62.305 329.123,80.909 350.634,80.909 
	361.39,62.305 "/>
<polygon style="&st0;" points="361.39,62.305 339.878,25.097 296.854,25.097 275.342,62.305 296.854,99.513 339.878,99.513 
	361.39,62.305 "/>
<polygon style="&st0;" points="361.39,62.305 329.123,6.493 264.586,6.493 232.38,62.305 264.586,118.055 329.123,118.055 
	361.39,62.305 "/>
<path style="&st4;" d="M236.821,80.909c0-3.496,2.813-6.306,6.315-6.306c3.439,0,6.254,2.81,6.254,6.306l0,0
	c0,3.434-2.814,6.243-6.254,6.243C239.634,87.152,236.821,84.343,236.821,80.909"/>
<path style="&st4;" d="M247.577,25.097c0-3.434,2.813-6.243,6.253-6.243c3.502,0,6.316,2.809,6.316,6.243l0,0
	c0,3.434-2.814,6.243-6.316,6.243C250.39,31.34,247.577,28.531,247.577,25.097"/>
<path style="&st4;" d="M269.088,62.305c0-3.496,2.814-6.243,6.254-6.243c3.502,0,6.315,2.747,6.315,6.243l0,0
	c0,3.433-2.813,6.243-6.315,6.243C271.903,68.548,269.088,65.738,269.088,62.305"/>
<path style="&st4;" d="M290.601,25.097c0-3.434,2.813-6.243,6.253-6.243c3.502,0,6.316,2.809,6.316,6.243l0,0
	c0,3.434-2.814,6.243-6.316,6.243C293.415,31.34,290.601,28.531,290.601,25.097"/>
<path style="&st4;" d="M236.821,43.701c0-3.434,2.813-6.243,6.315-6.243c3.439,0,6.254,2.809,6.254,6.243l0,0
	c0,3.434-2.814,6.243-6.254,6.243C239.634,49.944,236.821,47.135,236.821,43.701"/>
<path style="&st4;" d="M279.844,43.701c0-3.434,2.814-6.243,6.254-6.243c3.502,0,6.316,2.809,6.316,6.243l0,0
	c0,3.434-2.814,6.243-6.316,6.243C282.659,49.944,279.844,47.135,279.844,43.701"/>
<path style="&st5;" d="M226.064,62.305c0-3.496,2.814-6.243,6.316-6.243c3.439,0,6.254,2.747,6.254,6.243l0,0
	c0,3.433-2.814,6.243-6.254,6.243C228.878,68.548,226.064,65.738,226.064,62.305"/>
<path style="&st4;" d="M290.601,99.513c0-3.496,2.813-6.305,6.253-6.305c3.502,0,6.316,2.809,6.316,6.305l0,0
	c0,3.434-2.814,6.243-6.316,6.243C293.415,105.756,290.601,102.946,290.601,99.513"/>
<path style="&st4;" d="M247.577,99.513c0-3.496,2.813-6.305,6.253-6.305c3.502,0,6.316,2.809,6.316,6.305l0,0
	c0,3.434-2.814,6.243-6.316,6.243C250.39,105.756,247.577,102.946,247.577,99.513"/>
<path style="&st4;" d="M312.113,62.305c0-3.496,2.814-6.243,6.254-6.243c3.502,0,6.253,2.747,6.253,6.243l0,0
	c0,3.433-2.751,6.243-6.253,6.243C314.927,68.548,312.113,65.738,312.113,62.305"/>
<path style="&st4;" d="M279.844,80.909c0-3.496,2.814-6.306,6.254-6.306c3.502,0,6.316,2.81,6.316,6.306l0,0
	c0,3.434-2.814,6.243-6.316,6.243C282.659,87.152,279.844,84.343,279.844,80.909"/>
<path style="&st4;" d="M258.333,6.493c0-3.434,2.814-6.243,6.254-6.243c3.502,0,6.315,2.809,6.315,6.243l0,0
	c0,3.496-2.813,6.243-6.315,6.243C261.147,12.736,258.333,9.989,258.333,6.493"/>
<path style="&st4;" d="M279.844,6.493c0-3.434,2.814-6.243,6.254-6.243c3.502,0,6.316,2.809,6.316,6.243l0,0
	c0,3.496-2.814,6.243-6.316,6.243C282.659,12.736,279.844,9.989,279.844,6.493"/>
<path style="&st4;" d="M301.357,6.493c0-3.434,2.813-6.243,6.253-6.243c3.502,0,6.316,2.809,6.316,6.243l0,0
	c0,3.496-2.814,6.243-6.316,6.243C304.17,12.736,301.357,9.989,301.357,6.493"/>
<path style="&st4;" d="M344.38,43.701c0-3.434,2.814-6.243,6.254-6.243c3.502,0,6.254,2.809,6.254,6.243l0,0
	c0,3.434-2.752,6.243-6.254,6.243C347.195,49.944,344.38,47.135,344.38,43.701"/>
<path style="&st5;" d="M322.869,6.493c0-3.434,2.814-6.243,6.254-6.243c3.502,0,6.253,2.809,6.253,6.243l0,0
	c0,3.496-2.751,6.243-6.253,6.243C325.683,12.736,322.869,9.989,322.869,6.493"/>
<path style="&st4;" d="M333.625,25.097c0-3.434,2.814-6.243,6.254-6.243c3.502,0,6.254,2.809,6.254,6.243l0,0
	c0,3.434-2.752,6.243-6.254,6.243C336.439,31.34,333.625,28.531,333.625,25.097"/>
<path style="&st4;" d="M322.869,43.701c0-3.434,2.814-6.243,6.254-6.243c3.502,0,6.253,2.809,6.253,6.243l0,0
	c0,3.434-2.751,6.243-6.253,6.243C325.683,49.944,322.869,47.135,322.869,43.701"/>
<path style="&st4;" d="M312.113,25.097c0-3.434,2.814-6.243,6.254-6.243c3.502,0,6.253,2.809,6.253,6.243l0,0
	c0,3.434-2.751,6.243-6.253,6.243C314.927,31.34,312.113,28.531,312.113,25.097"/>
<path style="&st4;" d="M322.869,80.909c0-3.496,2.814-6.306,6.254-6.306c3.502,0,6.253,2.81,6.253,6.306l0,0
	c0,3.434-2.751,6.243-6.253,6.243C325.683,87.152,322.869,84.343,322.869,80.909"/>
<path style="&st4;" d="M312.113,99.513c0-3.496,2.814-6.305,6.254-6.305c3.502,0,6.253,2.809,6.253,6.305l0,0
	c0,3.434-2.751,6.243-6.253,6.243C314.927,105.756,312.113,102.946,312.113,99.513"/>
<path style="&st4;" d="M333.625,99.513c0-3.496,2.814-6.305,6.254-6.305c3.502,0,6.254,2.809,6.254,6.305l0,0
	c0,3.434-2.752,6.243-6.254,6.243C336.439,105.756,333.625,102.946,333.625,99.513"/>
<path style="&st4;" d="M279.844,118.055c0-3.434,2.814-6.243,6.254-6.243c3.502,0,6.316,2.81,6.316,6.243l0,0
	c0,3.496-2.814,6.306-6.316,6.306C282.659,124.36,279.844,121.551,279.844,118.055"/>
<path style="&st4;" d="M301.357,118.055c0-3.434,2.813-6.243,6.253-6.243c3.502,0,6.316,2.81,6.316,6.243l0,0
	c0,3.496-2.814,6.306-6.316,6.306C304.17,124.36,301.357,121.551,301.357,118.055"/>
<path style="&st4;" d="M322.869,118.055c0-3.434,2.814-6.243,6.254-6.243c3.502,0,6.253,2.81,6.253,6.243l0,0
	c0,3.496-2.751,6.306-6.253,6.306C325.683,124.36,322.869,121.551,322.869,118.055"/>
<path style="&st4;" d="M258.333,118.055c0-3.434,2.814-6.243,6.254-6.243c3.502,0,6.315,2.81,6.315,6.243l0,0
	c0,3.496-2.813,6.306-6.315,6.306C261.147,124.36,258.333,121.551,258.333,118.055"/>
<path style="&st4;" d="M344.38,80.909c0-3.496,2.814-6.306,6.254-6.306c3.502,0,6.254,2.81,6.254,6.306l0,0
	c0,3.434-2.752,6.243-6.254,6.243C347.195,87.152,344.38,84.343,344.38,80.909"/>
<path style="&st4;" d="M355.137,62.305c0-3.496,2.813-6.243,6.253-6.243s6.254,2.747,6.254,6.243l0,0
	c0,3.433-2.814,6.243-6.254,6.243S355.137,65.738,355.137,62.305"/>
<path style="&st4;" d="M107.811,62.305c0-3.496,2.814-6.243,6.253-6.243s6.253,2.747,6.253,6.243l0,0
	c0,3.433-2.814,6.243-6.253,6.243S107.811,65.738,107.811,62.305"/>
<path style="&st4;" d="M129.322,25.097c0-3.434,2.752-6.243,6.254-6.243c3.439,0,6.253,2.809,6.253,6.243l0,0
	c0,3.434-2.814,6.243-6.253,6.243C132.074,31.34,129.322,28.531,129.322,25.097"/>
<path style="&st4;" d="M118.566,43.701c0-3.434,2.814-6.243,6.253-6.243s6.253,2.809,6.253,6.243l0,0
	c0,3.434-2.814,6.243-6.253,6.243S118.566,47.135,118.566,43.701"/>
<path style="&st4;" d="M129.322,99.513c0-3.496,2.752-6.305,6.254-6.305c3.439,0,6.253,2.809,6.253,6.305l0,0
	c0,3.434-2.814,6.243-6.253,6.243C132.074,105.756,129.322,102.946,129.322,99.513"/>
<path style="&st4;" d="M150.834,62.305c0-3.496,2.751-6.243,6.253-6.243c3.439,0,6.254,2.747,6.254,6.243l0,0
	c0,3.433-2.814,6.243-6.254,6.243C153.586,68.548,150.834,65.738,150.834,62.305"/>
<path style="&st4;" d="M118.566,80.909c0-3.496,2.814-6.306,6.253-6.306s6.253,2.81,6.253,6.306l0,0
	c0,3.434-2.814,6.243-6.253,6.243S118.566,84.343,118.566,80.909"/>
<path style="&st4;" d="M183.04,43.701c0-3.434,2.814-6.243,6.316-6.243c3.439,0,6.254,2.809,6.254,6.243l0,0
	c0,3.434-2.814,6.243-6.254,6.243C185.854,49.944,183.04,47.135,183.04,43.701"/>
<path style="&st4;" d="M172.284,25.097c0-3.434,2.814-6.243,6.316-6.243c3.439,0,6.253,2.809,6.253,6.243l0,0
	c0,3.434-2.814,6.243-6.253,6.243C175.098,31.34,172.284,28.531,172.284,25.097"/>
<path style="&st4;" d="M161.59,43.701c0-3.434,2.752-6.243,6.254-6.243c3.439,0,6.253,2.809,6.253,6.243l0,0
	c0,3.434-2.814,6.243-6.253,6.243C164.342,49.944,161.59,47.135,161.59,43.701"/>
<path style="&st4;" d="M150.834,25.097c0-3.434,2.751-6.243,6.253-6.243c3.439,0,6.254,2.809,6.254,6.243l0,0
	c0,3.434-2.814,6.243-6.254,6.243C153.586,31.34,150.834,28.531,150.834,25.097"/>
<path style="&st4;" d="M161.59,80.909c0-3.496,2.752-6.306,6.254-6.306c3.439,0,6.253,2.81,6.253,6.306l0,0
	c0,3.434-2.814,6.243-6.253,6.243C164.342,87.152,161.59,84.343,161.59,80.909"/>
<path style="&st4;" d="M150.834,99.513c0-3.496,2.751-6.305,6.253-6.305c3.439,0,6.254,2.809,6.254,6.305l0,0
	c0,3.434-2.814,6.243-6.254,6.243C153.586,105.756,150.834,102.946,150.834,99.513"/>
<path style="&st4;" d="M172.284,99.513c0-3.496,2.814-6.305,6.316-6.305c3.439,0,6.253,2.809,6.253,6.305l0,0
	c0,3.434-2.814,6.243-6.253,6.243C175.098,105.756,172.284,102.946,172.284,99.513"/>
<path style="&st4;" d="M183.04,80.909c0-3.496,2.814-6.306,6.316-6.306c3.439,0,6.254,2.81,6.254,6.306l0,0
	c0,3.434-2.814,6.243-6.254,6.243C185.854,87.152,183.04,84.343,183.04,80.909"/>
<path style="&st4;" d="M193.796,62.305c0-3.496,2.813-6.243,6.315-6.243c3.439,0,6.254,2.747,6.254,6.243l0,0
	c0,3.433-2.814,6.243-6.254,6.243C196.61,68.548,193.796,65.738,193.796,62.305"/>
<path style="&st4;" d="M32.518,62.305c0-3.496,2.814-6.243,6.253-6.243s6.253,2.747,6.253,6.243l0,0
	c0,3.433-2.814,6.243-6.253,6.243S32.518,65.738,32.518,62.305"/>
<path style="&st4;" d="M64.786,43.701c0-3.434,2.814-6.243,6.253-6.243s6.253,2.809,6.253,6.243l0,0
	c0,3.434-2.814,6.243-6.253,6.243S64.786,47.135,64.786,43.701"/>
<path style="&st4;" d="M43.274,43.701c0-3.434,2.814-6.243,6.254-6.243c3.439,0,6.253,2.809,6.253,6.243l0,0
	c0,3.434-2.814,6.243-6.253,6.243C46.088,49.944,43.274,47.135,43.274,43.701"/>
<path style="&st4;" d="M43.274,80.909c0-3.496,2.814-6.306,6.254-6.306c3.439,0,6.253,2.81,6.253,6.306l0,0
	c0,3.434-2.814,6.243-6.253,6.243C46.088,87.152,43.274,84.343,43.274,80.909"/>
<path style="&st4;" d="M64.786,80.909c0-3.496,2.814-6.306,6.253-6.306s6.253,2.81,6.253,6.306l0,0c0,3.434-2.814,6.243-6.253,6.243
	S64.786,84.343,64.786,80.909"/>
<path style="&st4;" d="M75.542,62.305c0-3.496,2.814-6.243,6.254-6.243s6.253,2.747,6.253,6.243l0,0
	c0,3.433-2.814,6.243-6.253,6.243S75.542,65.738,75.542,62.305"/>
<path style="&st4;" d="M0.25,62.305c0-3.496,2.814-6.243,6.253-6.243c3.502,0,6.253,2.747,6.253,6.243l0,0
	c0,3.433-2.751,6.243-6.253,6.243C3.064,68.548,0.25,65.738,0.25,62.305"/>
</svg>
